<svg xmlns="http://www.w3.org/2000/svg" viewBox="0 0 533.5 544.3">
  <path fill="#4285F4" d="M533.5 278.4c0-17.4-1.6-34.1-4.7-50.2H272v95.1h146.9c-6.3 34-25 62.8-53.5 82v68h86.4c50.6-46.6 81.7-115.3 81.7-194.9z"/>
  <path fill="#34A853" d="M272 544.3c72.5 0 133.2-24 177.6-65.1l-86.4-68c-24 16.1-54.7 25.7-91.2 25.7-70 0-129.3-47.2-150.5-110.5H32.2v69.5c44.2 87.8 134.9 148.4 239.8 148.4z"/>
  <path fill="#FBBC04" d="M121.5 326.4c-10.4-31-10.4-64.4 0-95.4v-69.5H32.2c-42.7 85.5-42.7 186.4 0 271.9l89.3-69.5z"/>
  <path fill="#EA4335" d="M272 107.8c38.7-.6 75.8 13.7 104.2 39.9l77.9-77.9C404.8 24.2 340.7-.1 272 0 167.1 0 76.4 60.6 32.2 148.4l89.3 69.5C142.7 155 202 107.8 272 107.8z"/>
</svg>
