<svg xmlns="http://www.w3.org/2000/svg" xmlns:xlink="http://www.w3.org/1999/xlink" width="114" zoomAndPan="magnify" viewBox="0 0 85.5 88.499998" height="118" preserveAspectRatio="xMidYMid meet" version="1.0"><defs><clipPath id="38a0287eac"><path d="M 0 0.0078125 L 85.003906 0.0078125 L 85.003906 87.996094 L 0 87.996094 Z M 0 0.0078125 " clip-rule="nonzero"/></clipPath><clipPath id="085251c153"><path d="M 0 1.5 L 85.003906 1.5 L 85.003906 86.503906 L 0 86.503906 Z M 0 1.5 " clip-rule="nonzero"/></clipPath></defs><g clip-path="url(#38a0287eac)"><path fill="#ffffff" d="M 0 0.0078125 L 85.003906 0.0078125 L 85.003906 87.996094 L 0 87.996094 Z M 0 0.0078125 " fill-opacity="1" fill-rule="nonzero"/><path fill="#ffffff" d="M 0 0.0078125 L 85.003906 0.0078125 L 85.003906 87.996094 L 0 87.996094 Z M 0 0.0078125 " fill-opacity="1" fill-rule="nonzero"/></g><g clip-path="url(#085251c153)"><path fill="#2d0040" d="M 42.5 83.121094 C 21.503906 83.121094 4.316406 66.492188 3.433594 45.703125 L 10.660156 45.703125 C 11.050781 53.742188 14.398438 61.273438 20.214844 67.039062 C 26.316406 73.105469 34.308594 76.421875 42.773438 76.421875 C 42.894531 76.421875 43.011719 76.421875 43.113281 76.421875 C 60.726562 76.234375 74.988281 61.683594 74.90625 43.898438 C 74.667969 39.734375 73.101562 29.144531 63.957031 20.828125 C 56.203125 13.773438 47.398438 12.347656 42.773438 12.109375 L 19.90625 12.109375 C 26.300781 7.570312 34.085938 4.898438 42.5 4.898438 C 64.058594 4.882812 81.601562 22.429688 81.601562 44 C 81.601562 65.574219 64.058594 83.121094 42.5 83.121094 Z M 24.632812 45.703125 L 32.367188 45.703125 C 36.976562 46.277344 40.800781 49.1875 42.347656 53.335938 C 43.792969 57.195312 42.6875 60.714844 41.871094 62.515625 C 32.707031 62.003906 25.347656 54.78125 24.632812 45.703125 Z M 7.921875 25.757812 L 42.265625 25.777344 C 47.277344 25.691406 52.039062 27.648438 55.644531 31.21875 C 59.195312 34.734375 61.152344 39.378906 61.132812 44.273438 C 61.117188 49.324219 59.058594 53.894531 55.746094 57.210938 C 55.964844 55.953125 56.101562 54.679688 56.101562 53.367188 C 56.101562 41.605469 46.988281 32.050781 35.785156 32.050781 L 5.269531 32.050781 C 5.96875 29.855469 6.867188 27.75 7.921875 25.757812 Z M 4.351562 35.417969 L 35.769531 35.417969 C 45.101562 35.417969 52.683594 43.457031 52.683594 53.351562 C 52.683594 55.835938 52.210938 58.214844 51.289062 60.457031 C 49.523438 61.394531 47.585938 62.023438 45.542969 62.328125 C 46.378906 59.847656 46.988281 56.15625 45.492188 52.144531 C 43.488281 46.773438 38.574219 43.015625 32.640625 42.320312 C 32.574219 42.320312 32.503906 42.300781 32.4375 42.300781 L 3.433594 42.300781 C 3.535156 39.957031 3.84375 37.660156 4.351562 35.417969 Z M 15.757812 15.492188 L 42.671875 15.492188 C 46.769531 15.695312 54.691406 16.96875 61.660156 23.328125 C 69.890625 30.808594 71.285156 40.347656 71.503906 44 C 71.574219 59.847656 58.820312 72.867188 43.0625 73.039062 C 35.445312 73.125 28.117188 70.132812 22.59375 64.640625 C 17.425781 59.503906 14.433594 52.839844 14.058594 45.703125 L 21.25 45.703125 C 21.980469 56.9375 31.316406 65.863281 42.722656 65.949219 C 42.773438 65.949219 42.824219 65.964844 42.875 65.964844 C 42.945312 65.964844 42.996094 65.949219 43.046875 65.949219 C 54.859375 65.847656 64.484375 56.175781 64.515625 44.289062 C 64.535156 38.476562 62.238281 32.984375 58.023438 28.820312 C 53.773438 24.605469 48.128906 22.308594 42.230469 22.394531 L 9.929688 22.375 C 11.613281 19.859375 13.566406 17.546875 15.757812 15.492188 Z M 42.5 1.5 C 31.605469 1.5 21.660156 5.613281 14.144531 12.378906 C 14.007812 12.484375 13.871094 12.585938 13.769531 12.71875 C 10.539062 15.695312 7.769531 19.164062 5.578125 23.003906 C 5.472656 23.140625 5.390625 23.277344 5.320312 23.449219 C 3.605469 26.523438 2.261719 29.839844 1.359375 33.34375 C 1.359375 33.359375 1.34375 33.375 1.34375 33.394531 C 0.457031 36.792969 0 40.347656 0 44 C 0 67.429688 19.058594 86.503906 42.5 86.503906 C 65.945312 86.503906 85.003906 67.429688 85.003906 44 C 85.003906 20.574219 65.929688 1.5 42.5 1.5 " fill-opacity="1" fill-rule="nonzero"/></g></svg>