<svg width="512" height="512" viewBox="0 0 64 64" xmlns="http://www.w3.org/2000/svg" fill="none">
  <defs>
    <linearGradient id="g" x1="8" y1="8" x2="56" y2="56" gradientUnits="userSpaceOnUse">
      <stop stop-color="#7C3AED"/>
      <stop offset="1" stop-color="#6366F1"/>
    </linearGradient>
  </defs>
  <rect x="4" y="4" width="56" height="56" rx="14" fill="url(#g)"/>
  <path
    d="M33 10c5.8 4.9 10 14.1 8.8 21.7l-9.8 9.8-9.8-9.8C21.1 24 24.7 15.4 33 10Zm0 0c-8 5.2-12 13.8-11 21.7l11 11 11-11C45 23.8 41 15.2 33 10Z"
    fill="#F8FAFC"
    opacity=".92"
  />
  <path d="M29.5 34.5h5l-2.5 8-2.5-8Z" fill="#C7D2FE" opacity=".9"/>
  <circle cx="33" cy="22" r="3.4" fill="#C7D2FE" opacity=".95"/>
  <path d="M21 42c-2.5.7-4.4 2.6-5.2 5.1l4.8-1.4c1-.3 1.8-1.1 2.1-2.1L21 42Z" fill="#EEF2FF" opacity=".9"/>
  <path d="M42 42c2.5.7 4.4 2.6 5.2 5.1l-4.8-1.4c-1-.3-1.8-1.1-2.1-2.1L42 42Z" fill="#EEF2FF" opacity=".9"/>
</svg>
